<svg width="21" height="25" viewBox="0 0 21 25" fill="none" xmlns="http://www.w3.org/2000/svg">
<path d="M0 0C0 0.137457 0 0.223372 0 0.326465C0 7.35395 0 14.3814 0 21.4089C0 21.7182 0.0171612 22.0275 0.0858897 22.3196C0.41235 23.9003 1.78694 25 3.43643 25C8.02405 25 12.6117 25 17.1993 25C17.354 25 17.5086 25 17.6633 24.9656C19.4846 24.6564 20.6358 23.299 20.6358 21.4433C20.6358 16.7526 20.6358 12.0618 20.6358 7.37112C20.6358 7.28521 20.6358 7.18212 20.6358 7.07903C20.4983 7.07903 20.4124 7.07903 20.3093 7.07903C19.1237 7.07903 17.9382 7.09622 16.7698 7.06186C15.0172 7.01031 13.6083 5.60137 13.5567 3.86598C13.5224 2.68041 13.5395 1.49485 13.5395 0.326465C13.5395 0.223372 13.5395 0.103093 13.5395 0C9.00344 0 4.5189 0 0 0ZM20.5155 5.39519C18.7457 3.62543 16.9931 1.87285 15.2233 0.103089C15.2233 0.154635 15.2233 0.223355 15.2233 0.309266C15.2233 1.40892 15.2233 2.52577 15.2233 3.62543C15.2233 4.67354 15.9279 5.39519 16.9931 5.39519C18.0928 5.39519 19.2096 5.39519 20.3093 5.39519C20.4124 5.39519 20.4811 5.39519 20.5155 5.39519Z" fill="white"/>
<path d="M0 0C4.5189 0 9.00344 0 13.5395 0C13.5395 0.120275 13.5395 0.223372 13.5395 0.326465C13.5395 1.51203 13.5224 2.69759 13.5567 3.86598C13.6255 5.61856 15.0172 7.01031 16.7698 7.06186C17.9553 7.09622 19.1409 7.07903 20.3093 7.07903C20.4124 7.07903 20.5155 7.07903 20.6358 7.07903C20.6358 7.1993 20.6358 7.28521 20.6358 7.37112C20.6358 12.0618 20.6358 16.7526 20.6358 21.4433C20.6358 23.299 19.4846 24.6564 17.6633 24.9656C17.5086 25 17.354 25 17.1993 25C12.6117 25 8.02405 25 3.43643 25C1.78694 25 0.41235 23.9003 0.0858897 22.3196C0.0171612 22.0275 0 21.7182 0 21.4089C0 14.3814 0 7.35395 0 0.326465C0 0.223372 0 0.120275 0 0ZM15.8935 12.354C12.1649 12.354 8.45364 12.354 4.75948 12.354C4.75948 12.921 4.75948 13.4536 4.75948 14.0034C8.488 14.0034 12.1821 14.0034 15.8935 14.0034C15.8935 13.4364 15.8935 12.9038 15.8935 12.354ZM10.8247 16.4089C8.78005 16.4089 6.76979 16.4089 4.75948 16.4089C4.75948 16.9759 4.75948 17.5258 4.75948 18.0584C6.78697 18.0584 8.79723 18.0584 10.8247 18.0584C10.8247 17.5086 10.8247 16.9588 10.8247 16.4089Z" fill="#3EA8C1"/>
<path d="M20.5156 5.39525C20.4813 5.39525 20.3954 5.39525 20.3267 5.39525C19.227 5.39525 18.1102 5.39525 17.0105 5.39525C15.9452 5.39525 15.2407 4.69078 15.2407 3.62549C15.2407 2.52583 15.2407 1.40898 15.2407 0.309327C15.2407 0.223416 15.2407 0.154696 15.2407 0.103149C16.9933 1.87291 18.7631 3.64267 20.5156 5.39525Z" fill="#3EA8C1"/>
<path d="M15.8933 12.3538C15.8933 12.9036 15.8933 13.4534 15.8933 14.0032C12.1819 14.0032 8.4878 14.0032 4.75928 14.0032C4.75928 13.4706 4.75928 12.9208 4.75928 12.3538C8.45343 12.3538 12.1647 12.3538 15.8933 12.3538Z" fill="white"/>
<path d="M10.8245 16.4091C10.8245 16.9761 10.8245 17.5087 10.8245 18.0585C8.8142 18.0585 6.78677 18.0585 4.75928 18.0585C4.75928 17.5087 4.75928 16.9761 4.75928 16.4091C6.76959 16.4091 8.77984 16.4091 10.8245 16.4091Z" fill="white"/>
</svg>
