<svg width="36" height="26" viewBox="0 0 36 26" fill="none" xmlns="http://www.w3.org/2000/svg">
<path d="M33.0798 20.32C22.8998 20.32 12.7398 20.32 2.56982 20.32C2.56982 13.55 2.56982 6.79 2.56982 0C12.7298 0 22.8898 0 33.0798 0C33.0798 6.75 33.0798 13.52 33.0798 20.32Z" fill="#3EA8C1"/>
<path d="M0 22.89C11.9 22.89 23.76 22.89 35.64 22.89C35.64 23.39 35.68 23.88 35.63 24.36C35.57 24.95 35.06 25.38 34.46 25.42C34.33 25.43 34.19 25.42 34.06 25.42C23.24 25.42 12.41 25.42 1.58997 25.42C0.439966 25.42 0 24.98 0 23.84C0 23.54 0 23.24 0 22.89Z" fill="#3EA8C1"/>
<path d="M22.77 11.3299C22.76 14.0199 20.58 16.2499 17.79 16.1999C15.17 16.1599 12.95 14.0199 13.01 11.2099C13.06 8.5999 15.2 6.37991 18 6.43991C20.62 6.49991 22.76 8.62992 22.77 11.3299ZM17.21 11.7199C17.19 11.7199 17.18 11.7099 17.16 11.7099C17.14 11.6799 17.12 11.6499 17.09 11.6199C16.82 11.3499 16.56 11.0799 16.29 10.8199C16.1 10.6299 15.87 10.5699 15.62 10.6299C15.07 10.7599 14.88 11.4199 15.28 11.8199C15.73 12.2799 16.18 12.7299 16.64 13.1799C16.98 13.5199 17.39 13.5199 17.73 13.1799C18.37 12.5399 19 11.9099 19.64 11.2699C19.93 10.9799 20.21 10.6999 20.5 10.4099C20.73 10.1699 20.77 9.80992 20.6 9.53992C20.35 9.13992 19.82 9.07992 19.48 9.41992C18.75 10.1499 18.02 10.8799 17.29 11.6099C17.25 11.6499 17.24 11.6899 17.21 11.7199Z" fill="#3EA8C1"/>
<path d="M17.21 11.7199C17.23 11.6899 17.25 11.6499 17.28 11.6199C18.01 10.8899 18.74 10.1599 19.47 9.42989C19.81 9.09989 20.34 9.15992 20.59 9.54992C20.76 9.81992 20.72 10.1899 20.49 10.4199C20.21 10.7099 19.9201 10.9899 19.6301 11.2799C18.9901 11.9199 18.36 12.5499 17.72 13.1899C17.39 13.5199 16.9701 13.5199 16.6301 13.1899C16.1801 12.7399 15.72 12.2899 15.27 11.8299C14.87 11.4299 15.06 10.7699 15.61 10.6399C15.86 10.5799 16.09 10.6399 16.28 10.8299C16.55 11.0999 16.82 11.3599 17.08 11.6299C17.11 11.6599 17.12 11.6899 17.15 11.7199C17.18 11.7199 17.2 11.7199 17.21 11.7199Z" fill="white"/>
</svg>
